<mxfile host="65bd71144e">
    <diagram id="bvd-5e-m2Q1ShQEfhIDy" name="Page-1">
        <mxGraphModel dx="1111" dy="1676" grid="1" gridSize="10" guides="1" tooltips="1" connect="1" arrows="1" fold="1" page="1" pageScale="1" pageWidth="850" pageHeight="1100" background="#ffffff" math="0" shadow="0">
            <root>
                <mxCell id="0"/>
                <mxCell id="1" parent="0"/>
                <mxCell id="2" value="&lt;span style=&quot;background-color: initial;&quot;&gt;Isolate FASTA Records&lt;/span&gt;&lt;div&gt;&lt;div&gt;Prepare Output Location&lt;/div&gt;&lt;div&gt;Run antiSMASH&lt;/div&gt;&lt;/div&gt;" style="shape=process;whiteSpace=wrap;html=1;backgroundOutline=1;strokeColor=#000000;fillColor=#e5e5e5;fontColor=#000000;fontFamily=Arial;fontSource=https%3A%2F%2Ffonts.googleapis.com%2Fcss%3Ffamily%3DArial;" vertex="1" parent="1">
                    <mxGeometry x="145" y="-860" width="250" height="60" as="geometry"/>
                </mxCell>
                <mxCell id="3" value="Mandatory User Information" style="swimlane;whiteSpace=wrap;html=1;strokeColor=#000000;fillColor=#808080;fontColor=#000000;fontFamily=Arial;fontSource=https%3A%2F%2Ffonts.googleapis.com%2Fcss%3Ffamily%3DArial;" vertex="1" parent="1">
                    <mxGeometry x="70" y="-960" width="400" height="80" as="geometry"/>
                </mxCell>
                <mxCell id="4" value="Input Location" style="rectangle;whiteSpace=wrap;html=1;strokeColor=#000000;fillColor=#CCCCCC;fontColor=#000000;fontFamily=Arial;fontSource=https%3A%2F%2Ffonts.googleapis.com%2Fcss%3Ffamily%3DArial;" vertex="1" parent="3">
                    <mxGeometry x="140" y="30" width="120" height="40" as="geometry"/>
                </mxCell>
                <mxCell id="5" value="Save Preference" style="rectangle;whiteSpace=wrap;html=1;strokeColor=#000000;fillColor=#CCCCCC;fontColor=#000000;fontFamily=Arial;fontSource=https%3A%2F%2Ffonts.googleapis.com%2Fcss%3Ffamily%3DArial;" vertex="1" parent="3">
                    <mxGeometry x="270" y="30" width="120" height="40" as="geometry"/>
                </mxCell>
                <mxCell id="6" value="OS Path Conversion" style="rectangle;whiteSpace=wrap;html=1;strokeColor=#000000;fillColor=#CCCCCC;fontColor=#000000;fontFamily=Arial;fontSource=https%3A%2F%2Ffonts.googleapis.com%2Fcss%3Ffamily%3DArial;" vertex="1" parent="3">
                    <mxGeometry x="10" y="30" width="120" height="40" as="geometry"/>
                </mxCell>
                <mxCell id="7" value="Optional" style="swimlane;whiteSpace=wrap;html=1;strokeColor=#000000;fillColor=#808080;fontColor=#000000;fontFamily=Arial;fontSource=https%3A%2F%2Ffonts.googleapis.com%2Fcss%3Ffamily%3DArial;" vertex="1" parent="1">
                    <mxGeometry x="490" y="-960" width="140" height="80" as="geometry"/>
                </mxCell>
                <mxCell id="8" value="Save Location" style="rectangle;whiteSpace=wrap;html=1;strokeColor=#000000;fillColor=#CCCCCC;fontColor=#000000;fontFamily=Arial;fontSource=https%3A%2F%2Ffonts.googleapis.com%2Fcss%3Ffamily%3DArial;" vertex="1" parent="7">
                    <mxGeometry x="10" y="30" width="120" height="40" as="geometry"/>
                </mxCell>
                <mxCell id="9" style="edgeStyle=orthogonalEdgeStyle;rounded=0;orthogonalLoop=1;jettySize=auto;html=1;exitX=1;exitY=0.5;exitDx=0;exitDy=0;entryX=0;entryY=0.5;entryDx=0;entryDy=0;strokeColor=#000000;fillColor=#CCCCCC;fontColor=#000000;fontFamily=Arial;fontSource=https%3A%2F%2Ffonts.googleapis.com%2Fcss%3Ffamily%3DArial;" edge="1" parent="1" source="3" target="7">
                    <mxGeometry relative="1" as="geometry"/>
                </mxCell>
                <mxCell id="10" style="edgeStyle=none;html=1;exitX=0.5;exitY=1;exitDx=0;exitDy=0;entryX=0.5;entryY=0;entryDx=0;entryDy=0;strokeColor=#000000;fontFamily=Tahoma;fontSize=12;fontColor=#000000;fillColor=#CCCCCC;" edge="1" parent="1" source="4" target="2">
                    <mxGeometry relative="1" as="geometry"/>
                </mxCell>
                <mxCell id="11" value="Display Saved Results Location" style="rounded=1;whiteSpace=wrap;html=1;fontSize=12;glass=0;strokeWidth=1;shadow=0;strokeColor=#000000;fillColor=#E6E6E6;fontColor=#000000;fontFamily=Arial;fontSource=https%3A%2F%2Ffonts.googleapis.com%2Fcss%3Ffamily%3DArial;" vertex="1" parent="1">
                    <mxGeometry x="70" y="-790" width="560" height="40" as="geometry"/>
                </mxCell>
                <mxCell id="12" value="&lt;font&gt;Welcome &amp;amp; System/Environment Information&lt;/font&gt;" style="rounded=1;whiteSpace=wrap;html=1;fontSize=12;glass=0;strokeWidth=1;shadow=0;strokeColor=#000000;fillColor=#E6E6E6;fontColor=#000000;fontFamily=Arial;fontSource=https%3A%2F%2Ffonts.googleapis.com%2Fcss%3Ffamily%3DArial;" vertex="1" parent="1">
                    <mxGeometry x="70" y="-1010" width="560" height="40" as="geometry"/>
                </mxCell>
                <mxCell id="13" value="" style="rounded=0;whiteSpace=wrap;html=1;fillColor=none;strokeColor=none;" vertex="1" parent="1">
                    <mxGeometry x="60" y="-1020" width="580" height="280" as="geometry"/>
                </mxCell>
            </root>
        </mxGraphModel>
    </diagram>
</mxfile>